<?xml version="1.0" encoding="UTF-8" standalone="no"?>
<!-- Created with Inkscape (http://www.inkscape.org/) -->

<svg
   width="100mm"
   height="100mm"
   viewBox="0 0 100 100"
   version="1.1"
   id="svg1"
   inkscape:version="1.4.2 (ebf0e940d0, 2025-05-08)"
   sodipodi:docname="selene_logo.svg"
   inkscape:export-filename="hugr_logo_alpha.png"
   inkscape:export-xdpi="127"
   inkscape:export-ydpi="127"
   xmlns:inkscape="http://www.inkscape.org/namespaces/inkscape"
   xmlns:sodipodi="http://sodipodi.sourceforge.net/DTD/sodipodi-0.dtd"
   xmlns="http://www.w3.org/2000/svg"
   xmlns:svg="http://www.w3.org/2000/svg">
  <sodipodi:namedview
     id="namedview1"
     pagecolor="#505050"
     bordercolor="#eeeeee"
     borderopacity="1"
     inkscape:showpageshadow="0"
     inkscape:pageopacity="0"
     inkscape:pagecheckerboard="0"
     inkscape:deskcolor="#505050"
     inkscape:document-units="mm"
     inkscape:zoom="1.143593"
     inkscape:cx="151.2776"
     inkscape:cy="143.84488"
     inkscape:window-width="1910"
     inkscape:window-height="2123"
     inkscape:window-x="4803"
     inkscape:window-y="7"
     inkscape:window-maximized="1"
     inkscape:current-layer="layer1" />
  <defs
     id="defs1" />
  <g
     inkscape:label="Layer 1"
     inkscape:groupmode="layer"
     id="layer1"
     style="display:inline">
    <path
       id="path1-0-9"
       style="display:inline;fill:#000000;fill-opacity:1;stroke-width:0.264999"
       transform="rotate(-90)"
       d="m 0,90 a 10,10 0 0 1 -10,10 V 90 Z M -100,10 A 10,10 0 0 1 -90,0 V 10 Z M -10,0 A 10,10 0 0 1 0,10 h -10 z m -80,100 a 10,10 0 0 1 -10,-10 h 10 z M -10,0 V 100 H -90 V 0 Z M 0,10 V 90 H -100 V 10 Z"
       inkscape:highlight-color="#000000" />
    <path
       id="rect1-5-9-4"
       style="display:none;fill:#00ffff;fill-opacity:1;stroke-width:0.125187"
       d="m 69.999684,10 a 10,10 0 0 0 -4.999695,1.33997 10,10 0 0 0 -5.000212,8.659937 v 20.000328 h 5.000212 a 5,5 0 0 1 4.329968,2.500106 5,5 0 0 1 0,4.999695 5,5 0 0 1 -4.329968,2.500107 H 59.999777 34.999753 a 5,5 0 0 0 -4.329968,2.500106 5,5 0 0 0 0,4.999694 5,5 0 0 0 4.329968,2.500106 h 25.000024 9.999908 v 0.999939 h -9.999907 v 18.999874 a 10,10 0 0 0 5.000212,8.660453 10,10 0 0 0 9.999905,0 10,10 0 0 0 4.999695,-8.660453 V 19.999907 A 10,10 0 0 0 74.999895,11.33997 10,10 0 0 0 69.999684,10 Z" />
    <text
       xml:space="preserve"
       style="font-style:normal;font-variant:normal;font-weight:normal;font-stretch:normal;font-size:16.9333px;font-family:sans-serif;-inkscape-font-specification:sans-serif;text-align:start;writing-mode:lr-tb;direction:ltr;text-anchor:start;fill:#ffffff;fill-opacity:1;stroke:#ffffff;stroke-width:0.365;stroke-dasharray:none;stroke-opacity:1"
       x="22.210693"
       y="83.058762"
       id="text2"><tspan
         sodipodi:role="line"
         id="tspan2"
         style="font-style:normal;font-variant:normal;font-weight:normal;font-stretch:normal;font-size:16.9333px;font-family:sans-serif;-inkscape-font-specification:sans-serif;fill:#ffffff;stroke:#ffffff;stroke-width:0.365;stroke-dasharray:none"
         x="22.210693"
         y="83.058762">Selene</tspan></text>
    <g
       id="g2"
       transform="matrix(0.62148406,0,0,0.62148406,20.216601,4.633776)">
      <path
         id="path1-3-9"
         style="display:inline;fill:#ffff00;fill-opacity:1;stroke:#000000;stroke-width:1.565;stroke-dasharray:none;stroke-opacity:1"
         d="M 8.9807343,70.412219 A 41.182339,41.182339 0 0 0 16.030032,79.43766 41.182339,41.182339 0 0 1 13.351378,75.372738 41.182339,41.182339 0 0 1 28.424772,19.116656 41.182339,41.182339 0 0 1 77.632072,25.165504 41.182339,41.182339 0 0 0 24.054834,14.156327 41.182339,41.182339 0 0 0 8.9807343,70.412219 Z" />
      <path
         id="path1-3-9-2"
         style="display:inline;fill:#00ffff;fill-opacity:1;stroke:#000000;stroke-width:1.565;stroke-dasharray:none;stroke-opacity:1"
         d="M 85.522875,74.136099 A 41.182339,41.182339 0 0 0 89.814487,63.518508 41.182339,41.182339 0 0 1 87.633489,67.87075 41.182339,41.182339 0 0 1 31.377596,82.944849 41.182339,41.182339 0 0 1 12.012405,37.305655 a 41.182339,41.182339 0 0 0 17.25439,51.903834 41.182339,41.182339 0 0 0 56.25608,-15.07339 z" />
      <path
         id="path1-3"
         style="display:inline;fill:#ff00ff;fill-opacity:1;stroke:#000000;stroke-width:1.565;stroke-dasharray:none;stroke-opacity:1"
         d="M 52.3983,5.5466596 A 41.182339,41.182339 0 0 0 41.05739,7.1388106 41.182339,41.182339 0 0 1 45.917042,6.8514896 41.182339,41.182339 0 0 1 87.099541,48.033473 41.182339,41.182339 0 0 1 57.257435,87.623825 41.182339,41.182339 0 0 0 93.580285,46.72916 41.182339,41.182339 0 0 0 52.3983,5.5466596 Z" />
    </g>
  </g>
</svg>
