<svg width="361" height="362" viewBox="0 0 361 362" fill="none" xmlns="http://www.w3.org/2000/svg">
<path d="M162.922 0.188477C103.965 22.2913 62 79.1619 62 145.837C62 231.717 131.62 301.337 217.5 301.337C279.7 301.337 333.368 264.815 358.236 212.048C343.285 296.891 269.399 361.337 180.5 361.337C80.8126 361.337 0 280.3 0 180.337C0 86.3205 71.4835 9.05023 162.922 0.188477Z" fill="url(#paint0_linear_2098_284)"/>
<path d="M205.175 0C158.358 17.39 125 62.4668 125 115.337C125 183.268 180.069 238.337 248 238.337C297.783 238.337 340.656 208.761 360.012 166.222C348.644 233.828 289.838 285.337 219 285.337C140.023 285.337 76 221.314 76 142.337C76 68.0242 132.685 6.95428 205.175 0Z" fill="url(#paint1_linear_2098_284)"/>
<path d="M239.872 0.670898C202.673 13.6545 176 48.897 176 90.3369C176 142.804 218.757 185.337 271.5 185.337C308.878 185.337 341.238 163.975 356.922 132.855C346.947 183.86 302.198 222.337 248.5 222.337C187.473 222.337 138 172.641 138 111.337C138 52.95 182.877 5.09262 239.872 0.670898Z" fill="url(#paint2_linear_2098_284)"/>
<defs>
<linearGradient id="paint0_linear_2098_284" x1="340.5" y1="255" x2="-25.4133" y2="57.8403" gradientUnits="userSpaceOnUse">
<stop stop-color="#94C83F"/>
<stop offset="0.0793316" stop-color="#A9D145"/>
<stop offset="0.158663" stop-color="#BEDA4B"/>
<stop offset="0.218585" stop-color="#C9DE4E"/>
<stop offset="0.278507" stop-color="#D4E351"/>
<stop offset="0.396063" stop-color="#E9EB57"/>
<stop offset="0.528961" stop-color="#D8AF66"/>
<stop offset="0.593269" stop-color="#D0916E"/>
<stop offset="0.657578" stop-color="#C87376"/>
<stop offset="0.805879" stop-color="#714478"/>
<stop offset="0.99" stop-color="#1B147A"/>
</linearGradient>
<linearGradient id="paint1_linear_2098_284" x1="346.5" y1="186" x2="92" y2="50.5" gradientUnits="userSpaceOnUse">
<stop stop-color="#94C83F"/>
<stop offset="0.19" stop-color="#7FC88C"/>
<stop offset="0.28" stop-color="#78C8A4"/>
<stop offset="0.36" stop-color="#74C8B2"/>
<stop offset="0.420496" stop-color="#74C8B5"/>
<stop offset="0.471578" stop-color="#73C8B8"/>
<stop offset="0.669478" stop-color="#868690"/>
<stop offset="0.857965" stop-color="#994467"/>
<stop offset="0.993234" stop-color="#573971"/>
</linearGradient>
<linearGradient id="paint2_linear_2098_284" x1="342.514" y1="130.498" x2="129.32" y2="38.2541" gradientUnits="userSpaceOnUse">
<stop stop-color="#94C83F"/>
<stop offset="0.1" stop-color="#88C86A"/>
<stop offset="0.19" stop-color="#7FC88C"/>
<stop offset="0.28" stop-color="#78C8A4"/>
<stop offset="0.36" stop-color="#74C8B2"/>
<stop offset="0.488983" stop-color="#73C8B8"/>
<stop offset="0.99" stop-color="#146D7A"/>
</linearGradient>
</defs>
</svg>
